<?xml version="1.0" standalone="no"?><!DOCTYPE svg PUBLIC "-//W3C//DTD SVG 1.1//EN" "http://www.w3.org/Graphics/SVG/1.1/DTD/svg11.dtd"><svg t="1743391429827" class="icon" viewBox="0 0 1024 1024" version="1.1" xmlns="http://www.w3.org/2000/svg" p-id="3668" xmlns:xlink="http://www.w3.org/1999/xlink" width="16" height="16"><path d="M448 540c19.882 0 36 16.118 36 36v280c0 19.882-16.118 36-36 36H168c-19.882 0-36-16.118-36-36V576c0-19.882 16.118-36 36-36z m408 0c19.882 0 36 16.118 36 36v280c0 19.882-16.118 36-36 36H576c-19.882 0-36-16.118-36-36V576c0-19.882 16.118-36 36-36z m-444 72H204v208h208V612z m408 0H612v208h208V612zM448 132c19.882 0 36 16.118 36 36v280c0 19.882-16.118 36-36 36H168c-19.882 0-36-16.118-36-36V168c0-19.882 16.118-36 36-36z m408 0c19.882 0 36 16.118 36 36v280c0 19.882-16.118 36-36 36H576c-19.882 0-36-16.118-36-36V168c0-19.882 16.118-36 36-36z m-444 72H204v208h208V204z m408 0H612v208h208V204z" fill="#595959" p-id="3669"></path></svg>